# xmcd
# 
# Track frame offsets:
#     150
#     24450
#     50735
#     63730
#     78975
#     94990
#     114142
#     133285
#     149622
#     177550
#     188045
#     202852
# 
# Disc length: 2957
# 
# Revision: 1
# Processed by: cddbd v1.5.2PL0 Copyright (c) Steve Scherf et al.
# Submitted via: BonkEnc v1.0.8
# 
DISCID=b00b8b0c
DTITLE=Stan Getz and Antonio Carlos - Their Greatest Hits
DYEAR=2007
DGENRE=Jazz
TTITLE0=The Girl from Ipanema - (Getz/Gillberto)
TTITLE1=Desafinado (Off Key) - instrumental (Jazz Samba)
TTITLE2=Wave - (Wave)
TTITLE3=Insensatez (How Insensitive) - (Jazz Samba Encore!)
TTITLE4=Águas de Março (Waters of March) - (Elis&Tom)
TTITLE5=Chega de Saudade (No More Blues) - (Big Band Bossa Nova)
TTITLE6=Corcovado (Quiet Nights of Quiet Stars) - (Getz/Gilberto)
TTITLE7=Amor em Paz (Once I Loved) - (The Composer of "Desafinado" Plays)
TTITLE8=Samba de Uma Nota S6 (One Note Samba) - (Jazz Samba)
TTITLE9=Água de Beber (Water to Drink) - (The Astrud Gilberto Album)
TTITLE10=Meditation - (The Composer of "Desafinado" Plays)
TTITLE11=Desafinado (Off Key) - vocal (Getz/Gilberto)
EXTD=YEAR: 2007
EXTT0=
EXTT1=
EXTT2=
EXTT3=
EXTT4=
EXTT5=
EXTT6=
EXTT7=
EXTT8=
EXTT9=
EXTT10=
EXTT11=
PLAYORDER=
